M48
; DRILL file {KiCad (5.1.6)-1} date 09/04/20 13:31:16
; FORMAT={-:-/ absolute / inch / decimal}
; #@! TF.CreationDate,2020-09-04T13:31:16+05:30
; #@! TF.GenerationSoftware,Kicad,Pcbnew,(5.1.6)-1
; #@! TF.FileFunction,Plated,1,2,PTH
FMAT,2
INCH
T1C0.0236
T2C0.0315
T3C0.0374
T4C0.0394
T5C0.0433
T6C0.0629
%
G90
G05
T1
X4.5992Y-3.9903
X4.5992Y-4.0603
X4.5992Y-4.1303
X4.5992Y-4.2003
X4.5992Y-4.2703
X4.5992Y-4.3403
X4.5992Y-4.4103
X4.5992Y-4.4803
X4.5992Y-4.5503
X4.5992Y-4.6203
X4.5992Y-4.6903
X4.5992Y-4.7603
X4.5992Y-4.8303
X4.5992Y-4.9003
X4.5992Y-4.9703
X4.9992Y-3.9903
X4.9992Y-4.0603
X4.9992Y-4.1303
X4.9992Y-4.2003
X4.9992Y-4.2703
X4.9992Y-4.3403
X4.9992Y-4.4103
X4.9992Y-4.4803
X4.9992Y-4.5503
X4.9992Y-4.6203
X4.9992Y-4.6903
X4.9992Y-4.7603
X4.9992Y-4.8303
X4.9992Y-4.9003
X4.9992Y-4.9703
T2
X6.3327Y-4.4331
X6.3327Y-4.9331
X4.0157Y-5.3976
X4.2126Y-5.3976
X5.4508Y-4.4803
X5.6476Y-4.4803
X5.748Y-4.0512
X5.9449Y-4.0512
X5.0Y-3.6024
X5.5Y-3.6024
X3.5197Y-4.6535
X3.7165Y-4.6535
X3.5236Y-5.252
X3.7205Y-5.252
X5.4665Y-4.2047
X5.6634Y-4.2047
X6.1722Y-4.6978
X6.1722Y-5.1978
X3.5236Y-4.3661
X3.7205Y-4.3661
X3.9961Y-4.4685
X4.1929Y-4.4685
X5.7717Y-4.3524
X5.9685Y-4.3524
X3.2618Y-3.8425
X3.3602Y-3.8425
X4.749Y-5.373
X4.8474Y-5.373
X2.8612Y-3.8425
X2.9596Y-3.8425
X5.4469Y-5.0315
X5.6437Y-5.0315
X3.5217Y-4.9587
X3.7185Y-4.9587
X4.0079Y-5.0945
X4.2047Y-5.0945
X3.69Y-3.8474
X3.7884Y-3.8474
X5.122Y-5.3799
X5.2205Y-5.3799
X5.4547Y-3.9488
X5.6516Y-3.9488
X4.0Y-4.7795
X4.1969Y-4.7795
X5.4488Y-4.7244
X5.6457Y-4.7244
X5.7756Y-4.6339
X5.9724Y-4.6339
X6.1732Y-4.1024
X6.1732Y-4.6024
X4.1289Y-3.8425
X4.2274Y-3.8425
X5.7815Y-4.874
X5.9783Y-4.874
X5.7835Y-5.185
X5.9803Y-5.185
X5.0Y-3.7982
X5.5Y-3.7982
X6.3327Y-3.8386
X6.3327Y-4.3386
T3
X3.3031Y-4.7362
X3.3031Y-4.8346
X3.3031Y-4.9331
X4.7913Y-3.3937
X4.8898Y-3.3937
X4.9882Y-3.3937
X5.0866Y-3.3937
X2.5118Y-4.2264
X2.5118Y-4.3248
X2.5118Y-4.4232
X2.5335Y-4.7283
X2.5335Y-4.8268
X2.5335Y-4.9252
X3.0354Y-4.7283
X3.0354Y-4.8268
X3.0354Y-4.9252
X2.7795Y-4.7244
X2.7795Y-4.8228
X2.7795Y-4.9213
T4
X4.3396Y-3.3681
X4.438Y-3.3681
X3.9695Y-3.3681
X4.0679Y-3.3681
X2.5335Y-3.8642
X2.5335Y-3.9626
T5
X3.4486Y-3.5443
X3.5486Y-3.5443
X3.6486Y-3.5443
X2.8689Y-3.5482
X2.9689Y-3.5482
X3.0689Y-3.5482
T6
X2.9823Y-3.2757
X3.5531Y-3.2747
T0
M30
