%TF.GenerationSoftware,KiCad,Pcbnew,(5.1.6)-1*%
%TF.CreationDate,2020-09-04T13:31:07+05:30*%
%TF.ProjectId,tda7439,74646137-3433-4392-9e6b-696361645f70,rev?*%
%TF.SameCoordinates,Original*%
%TF.FileFunction,Soldermask,Top*%
%TF.FilePolarity,Negative*%
%FSLAX46Y46*%
G04 Gerber Fmt 4.6, Leading zero omitted, Abs format (unit mm)*
G04 Created by KiCad (PCBNEW (5.1.6)-1) date 2020-09-04 13:31:07*
%MOMM*%
%LPD*%
G01*
G04 APERTURE LIST*
%ADD10C,2.848280*%
%ADD11O,2.050000X1.800000*%
%ADD12C,3.300000*%
%ADD13O,1.800000X2.050000*%
%ADD14C,1.700000*%
%ADD15R,1.700000X1.700000*%
%ADD16O,2.316000X1.208000*%
%ADD17O,2.100000X1.800000*%
%ADD18O,1.800000X2.100000*%
%ADD19O,1.700000X1.700000*%
%ADD20O,2.005000X2.100000*%
%ADD21R,2.005000X2.100000*%
G04 APERTURE END LIST*
D10*
%TO.C,hs_5770*%
X90250000Y-83176640D03*
%TD*%
%TO.C,hs_5770*%
X75750000Y-83201640D03*
%TD*%
%TO.C,J2*%
G36*
G01*
X64560294Y-113250000D02*
X63039706Y-113250000D01*
G75*
G02*
X62775000Y-112985294I0J264706D01*
G01*
X62775000Y-111714706D01*
G75*
G02*
X63039706Y-111450000I264706J0D01*
G01*
X64560294Y-111450000D01*
G75*
G02*
X64825000Y-111714706I0J-264706D01*
G01*
X64825000Y-112985294D01*
G75*
G02*
X64560294Y-113250000I-264706J0D01*
G01*
G37*
D11*
X63800000Y-109850000D03*
X63800000Y-107350000D03*
%TD*%
D12*
%TO.C,REF\u002A\u002A*%
X65450000Y-86100000D03*
%TD*%
%TO.C,REF\u002A\u002A*%
X65650000Y-137000000D03*
%TD*%
%TO.C,REF\u002A\u002A*%
X159500000Y-86050000D03*
%TD*%
%TO.C,J9*%
G36*
G01*
X130100000Y-85439706D02*
X130100000Y-86960294D01*
G75*
G02*
X129835294Y-87225000I-264706J0D01*
G01*
X128564706Y-87225000D01*
G75*
G02*
X128300000Y-86960294I0J264706D01*
G01*
X128300000Y-85439706D01*
G75*
G02*
X128564706Y-85175000I264706J0D01*
G01*
X129835294Y-85175000D01*
G75*
G02*
X130100000Y-85439706I0J-264706D01*
G01*
G37*
D13*
X126700000Y-86200000D03*
X124200000Y-86200000D03*
X121700000Y-86200000D03*
%TD*%
D14*
%TO.C,C12*%
X132600000Y-136650000D03*
D15*
X130100000Y-136650000D03*
%TD*%
%TO.C,C13*%
X120625000Y-136475000D03*
D14*
X123125000Y-136475000D03*
%TD*%
%TO.C,C14*%
X146900000Y-131700000D03*
X151900000Y-131700000D03*
%TD*%
%TO.C,C15*%
X143350000Y-127800000D03*
X138350000Y-127800000D03*
%TD*%
%TO.C,C16*%
X138850000Y-106800000D03*
X143850000Y-106800000D03*
%TD*%
%TO.C,C17*%
X151600000Y-110550000D03*
X146600000Y-110550000D03*
%TD*%
%TO.C,C18*%
X146000000Y-102900000D03*
X151000000Y-102900000D03*
%TD*%
%TO.C,C19*%
X146700000Y-117700000D03*
X151700000Y-117700000D03*
%TD*%
%TO.C,C20*%
X143450000Y-113800000D03*
X138450000Y-113800000D03*
%TD*%
%TO.C,C21*%
X146850000Y-123800000D03*
X151850000Y-123800000D03*
%TD*%
%TO.C,C22*%
X143400000Y-120000000D03*
X138400000Y-120000000D03*
%TD*%
%TO.C,C23*%
X143550000Y-100300000D03*
X138550000Y-100300000D03*
%TD*%
D16*
%TO.C,U2*%
X116820000Y-101354000D03*
X116820000Y-103132000D03*
X116820000Y-104910000D03*
X116820000Y-106688000D03*
X116820000Y-108466000D03*
X116820000Y-110244000D03*
X116820000Y-112022000D03*
X116820000Y-113800000D03*
X116820000Y-115578000D03*
X116820000Y-117356000D03*
X116820000Y-119134000D03*
X116820000Y-120912000D03*
X116820000Y-122690000D03*
X116820000Y-124468000D03*
X116820000Y-126246000D03*
X126980000Y-126246000D03*
X126980000Y-124468000D03*
X126980000Y-122690000D03*
X126980000Y-120912000D03*
X126980000Y-119134000D03*
X126980000Y-117356000D03*
X126980000Y-115578000D03*
X126980000Y-113800000D03*
X126980000Y-112022000D03*
X126980000Y-110244000D03*
X126980000Y-108466000D03*
X126980000Y-106688000D03*
X126980000Y-104910000D03*
X126980000Y-103132000D03*
X126980000Y-101354000D03*
%TD*%
D14*
%TO.C,C2*%
X89450000Y-125950000D03*
X94450000Y-125950000D03*
%TD*%
%TO.C,C3*%
X94400000Y-118200000D03*
X89400000Y-118200000D03*
%TD*%
%TO.C,C4*%
X101800000Y-129400000D03*
X106800000Y-129400000D03*
%TD*%
%TO.C,C5*%
X106500000Y-113500000D03*
X101500000Y-113500000D03*
%TD*%
%TO.C,C6*%
X89500000Y-133400000D03*
X94500000Y-133400000D03*
%TD*%
%TO.C,C7*%
X94500000Y-110900000D03*
X89500000Y-110900000D03*
%TD*%
%TO.C,C8*%
X102000000Y-137100000D03*
X107000000Y-137100000D03*
%TD*%
D15*
%TO.C,C10*%
X82850000Y-97600000D03*
D14*
X85350000Y-97600000D03*
%TD*%
D15*
%TO.C,C11*%
X107375000Y-97600000D03*
D14*
X104875000Y-97600000D03*
%TD*%
%TO.C,C25*%
X96225000Y-97725000D03*
D15*
X93725000Y-97725000D03*
%TD*%
D17*
%TO.C,J1*%
X64350000Y-100650000D03*
G36*
G01*
X63564706Y-97250000D02*
X65135294Y-97250000D01*
G75*
G02*
X65400000Y-97514706I0J-264706D01*
G01*
X65400000Y-98785294D01*
G75*
G02*
X65135294Y-99050000I-264706J0D01*
G01*
X63564706Y-99050000D01*
G75*
G02*
X63300000Y-98785294I0J264706D01*
G01*
X63300000Y-97514706D01*
G75*
G02*
X63564706Y-97250000I264706J0D01*
G01*
G37*
%TD*%
D11*
%TO.C,J3*%
X77100000Y-125100000D03*
X77100000Y-122600000D03*
G36*
G01*
X76339706Y-119200000D02*
X77860294Y-119200000D01*
G75*
G02*
X78125000Y-119464706I0J-264706D01*
G01*
X78125000Y-120735294D01*
G75*
G02*
X77860294Y-121000000I-264706J0D01*
G01*
X76339706Y-121000000D01*
G75*
G02*
X76075000Y-120735294I0J264706D01*
G01*
X76075000Y-119464706D01*
G75*
G02*
X76339706Y-119200000I264706J0D01*
G01*
G37*
%TD*%
%TO.C,J4*%
G36*
G01*
X69839706Y-119100000D02*
X71360294Y-119100000D01*
G75*
G02*
X71625000Y-119364706I0J-264706D01*
G01*
X71625000Y-120635294D01*
G75*
G02*
X71360294Y-120900000I-264706J0D01*
G01*
X69839706Y-120900000D01*
G75*
G02*
X69575000Y-120635294I0J264706D01*
G01*
X69575000Y-119364706D01*
G75*
G02*
X69839706Y-119100000I264706J0D01*
G01*
G37*
X70600000Y-122500000D03*
X70600000Y-125000000D03*
%TD*%
%TO.C,J5*%
G36*
G01*
X63589706Y-119200000D02*
X65110294Y-119200000D01*
G75*
G02*
X65375000Y-119464706I0J-264706D01*
G01*
X65375000Y-120735294D01*
G75*
G02*
X65110294Y-121000000I-264706J0D01*
G01*
X63589706Y-121000000D01*
G75*
G02*
X63325000Y-120735294I0J264706D01*
G01*
X63325000Y-119464706D01*
G75*
G02*
X63589706Y-119200000I264706J0D01*
G01*
G37*
X64350000Y-122600000D03*
X64350000Y-125100000D03*
%TD*%
%TO.C,J6*%
X83900000Y-125300000D03*
X83900000Y-122800000D03*
G36*
G01*
X83139706Y-119400000D02*
X84660294Y-119400000D01*
G75*
G02*
X84925000Y-119664706I0J-264706D01*
G01*
X84925000Y-120935294D01*
G75*
G02*
X84660294Y-121200000I-264706J0D01*
G01*
X83139706Y-121200000D01*
G75*
G02*
X82875000Y-120935294I0J264706D01*
G01*
X82875000Y-119664706D01*
G75*
G02*
X83139706Y-119400000I264706J0D01*
G01*
G37*
%TD*%
%TO.C,J7*%
G36*
G01*
X109325000Y-86335294D02*
X109325000Y-84764706D01*
G75*
G02*
X109589706Y-84500000I264706J0D01*
G01*
X110860294Y-84500000D01*
G75*
G02*
X111125000Y-84764706I0J-264706D01*
G01*
X111125000Y-86335294D01*
G75*
G02*
X110860294Y-86600000I-264706J0D01*
G01*
X109589706Y-86600000D01*
G75*
G02*
X109325000Y-86335294I0J264706D01*
G01*
G37*
D18*
X112725000Y-85550000D03*
%TD*%
%TO.C,J8*%
G36*
G01*
X99925000Y-86335294D02*
X99925000Y-84764706D01*
G75*
G02*
X100189706Y-84500000I264706J0D01*
G01*
X101460294Y-84500000D01*
G75*
G02*
X101725000Y-84764706I0J-264706D01*
G01*
X101725000Y-86335294D01*
G75*
G02*
X101460294Y-86600000I-264706J0D01*
G01*
X100189706Y-86600000D01*
G75*
G02*
X99925000Y-86335294I0J264706D01*
G01*
G37*
X103325000Y-85550000D03*
%TD*%
D14*
%TO.C,R1*%
X156775000Y-132025000D03*
D19*
X156775000Y-119325000D03*
%TD*%
%TO.C,R2*%
X160850000Y-97500000D03*
D14*
X160850000Y-110200000D03*
%TD*%
D19*
%TO.C,R3*%
X139700000Y-96475000D03*
D14*
X127000000Y-96475000D03*
%TD*%
%TO.C,R4*%
X127000000Y-91500000D03*
D19*
X139700000Y-91500000D03*
%TD*%
D14*
%TO.C,R5*%
X156800000Y-116900000D03*
D19*
X156800000Y-104200000D03*
%TD*%
%TO.C,R6*%
X160850000Y-112600000D03*
D14*
X160850000Y-125300000D03*
%TD*%
D20*
%TO.C,U1*%
X77950000Y-90125000D03*
X75410000Y-90125000D03*
D21*
X72870000Y-90125000D03*
%TD*%
%TO.C,U4*%
X87595000Y-90025000D03*
D20*
X90135000Y-90025000D03*
X92675000Y-90025000D03*
%TD*%
D14*
%TO.C,C1*%
X101600000Y-121400000D03*
X106600000Y-121400000D03*
%TD*%
D15*
%TO.C,C9*%
X72675000Y-97600000D03*
D14*
X75175000Y-97600000D03*
%TD*%
M02*
