%TF.GenerationSoftware,KiCad,Pcbnew,(5.1.6)-1*%
%TF.CreationDate,2020-09-04T13:31:07+05:30*%
%TF.ProjectId,tda7439,74646137-3433-4392-9e6b-696361645f70,rev?*%
%TF.SameCoordinates,Original*%
%TF.FileFunction,Copper,L1,Top*%
%TF.FilePolarity,Positive*%
%FSLAX46Y46*%
G04 Gerber Fmt 4.6, Leading zero omitted, Abs format (unit mm)*
G04 Created by KiCad (PCBNEW (5.1.6)-1) date 2020-09-04 13:31:07*
%MOMM*%
%LPD*%
G01*
G04 APERTURE LIST*
%TA.AperFunction,ComponentPad*%
%ADD10C,2.748280*%
%TD*%
%TA.AperFunction,ComponentPad*%
%ADD11O,1.950000X1.700000*%
%TD*%
%TA.AperFunction,ComponentPad*%
%ADD12O,1.700000X1.950000*%
%TD*%
%TA.AperFunction,ComponentPad*%
%ADD13C,1.600000*%
%TD*%
%TA.AperFunction,ComponentPad*%
%ADD14R,1.600000X1.600000*%
%TD*%
%TA.AperFunction,ComponentPad*%
%ADD15O,2.216000X1.108000*%
%TD*%
%TA.AperFunction,ComponentPad*%
%ADD16O,2.000000X1.700000*%
%TD*%
%TA.AperFunction,ComponentPad*%
%ADD17O,1.700000X2.000000*%
%TD*%
%TA.AperFunction,ComponentPad*%
%ADD18O,1.600000X1.600000*%
%TD*%
%TA.AperFunction,ComponentPad*%
%ADD19O,1.905000X2.000000*%
%TD*%
%TA.AperFunction,ComponentPad*%
%ADD20R,1.905000X2.000000*%
%TD*%
G04 APERTURE END LIST*
D10*
%TO.P,hs_5770,*%
%TO.N,*%
X90250000Y-83176640D03*
%TD*%
%TO.P,hs_5770,*%
%TO.N,*%
X75750000Y-83201640D03*
%TD*%
%TO.P,J2,1*%
%TO.N,L-OUT*%
%TA.AperFunction,ComponentPad*%
G36*
G01*
X64525000Y-113200000D02*
X63075000Y-113200000D01*
G75*
G02*
X62825000Y-112950000I0J250000D01*
G01*
X62825000Y-111750000D01*
G75*
G02*
X63075000Y-111500000I250000J0D01*
G01*
X64525000Y-111500000D01*
G75*
G02*
X64775000Y-111750000I0J-250000D01*
G01*
X64775000Y-112950000D01*
G75*
G02*
X64525000Y-113200000I-250000J0D01*
G01*
G37*
%TD.AperFunction*%
D11*
%TO.P,J2,2*%
%TO.N,GND*%
X63800000Y-109850000D03*
%TO.P,J2,3*%
%TO.N,R-OUT*%
X63800000Y-107350000D03*
%TD*%
%TO.P,J9,1*%
%TO.N,Net-(J9-Pad1)*%
%TA.AperFunction,ComponentPad*%
G36*
G01*
X130050000Y-85475000D02*
X130050000Y-86925000D01*
G75*
G02*
X129800000Y-87175000I-250000J0D01*
G01*
X128600000Y-87175000D01*
G75*
G02*
X128350000Y-86925000I0J250000D01*
G01*
X128350000Y-85475000D01*
G75*
G02*
X128600000Y-85225000I250000J0D01*
G01*
X129800000Y-85225000D01*
G75*
G02*
X130050000Y-85475000I0J-250000D01*
G01*
G37*
%TD.AperFunction*%
D12*
%TO.P,J9,2*%
%TO.N,SCL*%
X126700000Y-86200000D03*
%TO.P,J9,3*%
%TO.N,SDA*%
X124200000Y-86200000D03*
%TO.P,J9,4*%
%TO.N,DGND*%
X121700000Y-86200000D03*
%TD*%
D13*
%TO.P,C12,2*%
%TO.N,Net-(C12-Pad2)*%
X132600000Y-136650000D03*
D14*
%TO.P,C12,1*%
%TO.N,Net-(C12-Pad1)*%
X130100000Y-136650000D03*
%TD*%
%TO.P,C13,1*%
%TO.N,Net-(C13-Pad1)*%
X120625000Y-136475000D03*
D13*
%TO.P,C13,2*%
%TO.N,Net-(C13-Pad2)*%
X123125000Y-136475000D03*
%TD*%
%TO.P,C14,1*%
%TO.N,mi-r*%
X146900000Y-131700000D03*
%TO.P,C14,2*%
%TO.N,Net-(C14-Pad2)*%
X151900000Y-131700000D03*
%TD*%
%TO.P,C15,2*%
%TO.N,Net-(C14-Pad2)*%
X143350000Y-127800000D03*
%TO.P,C15,1*%
%TO.N,mo-r*%
X138350000Y-127800000D03*
%TD*%
%TO.P,C16,1*%
%TO.N,mi-l*%
X138850000Y-106800000D03*
%TO.P,C16,2*%
%TO.N,Net-(C16-Pad2)*%
X143850000Y-106800000D03*
%TD*%
%TO.P,C17,2*%
%TO.N,Net-(C16-Pad2)*%
X151600000Y-110550000D03*
%TO.P,C17,1*%
%TO.N,mo-l*%
X146600000Y-110550000D03*
%TD*%
%TO.P,C18,2*%
%TO.N,t-l*%
X146000000Y-102900000D03*
%TO.P,C18,1*%
%TO.N,GND*%
X151000000Y-102900000D03*
%TD*%
%TO.P,C19,1*%
%TO.N,bi-l*%
X146700000Y-117700000D03*
%TO.P,C19,2*%
%TO.N,Net-(C19-Pad2)*%
X151700000Y-117700000D03*
%TD*%
%TO.P,C20,2*%
%TO.N,Net-(C19-Pad2)*%
X143450000Y-113800000D03*
%TO.P,C20,1*%
%TO.N,bo-l*%
X138450000Y-113800000D03*
%TD*%
%TO.P,C21,1*%
%TO.N,bi-r*%
X146850000Y-123800000D03*
%TO.P,C21,2*%
%TO.N,Net-(C21-Pad2)*%
X151850000Y-123800000D03*
%TD*%
%TO.P,C22,2*%
%TO.N,Net-(C21-Pad2)*%
X143400000Y-120000000D03*
%TO.P,C22,1*%
%TO.N,bo-r*%
X138400000Y-120000000D03*
%TD*%
%TO.P,C23,1*%
%TO.N,GND*%
X143550000Y-100300000D03*
%TO.P,C23,2*%
%TO.N,t-r*%
X138550000Y-100300000D03*
%TD*%
D15*
%TO.P,U2,1*%
%TO.N,SDA*%
X116820000Y-101354000D03*
%TO.P,U2,2*%
%TO.N,Net-(C11-Pad1)*%
X116820000Y-103132000D03*
%TO.P,U2,3*%
%TO.N,+9V*%
X116820000Y-104910000D03*
%TO.P,U2,4*%
%TO.N,GND*%
X116820000Y-106688000D03*
%TO.P,U2,5*%
%TO.N,R-OUT*%
X116820000Y-108466000D03*
%TO.P,U2,6*%
%TO.N,L-OUT*%
X116820000Y-110244000D03*
%TO.P,U2,7*%
%TO.N,R4*%
X116820000Y-112022000D03*
%TO.P,U2,8*%
%TO.N,R3*%
X116820000Y-113800000D03*
%TO.P,U2,9*%
%TO.N,R2*%
X116820000Y-115578000D03*
%TO.P,U2,10*%
%TO.N,R1*%
X116820000Y-117356000D03*
%TO.P,U2,11*%
%TO.N,L1*%
X116820000Y-119134000D03*
%TO.P,U2,12*%
%TO.N,L2*%
X116820000Y-120912000D03*
%TO.P,U2,13*%
%TO.N,L3*%
X116820000Y-122690000D03*
%TO.P,U2,14*%
%TO.N,L4*%
X116820000Y-124468000D03*
%TO.P,U2,15*%
%TO.N,Net-(C13-Pad1)*%
X116820000Y-126246000D03*
%TO.P,U2,16*%
%TO.N,Net-(C13-Pad2)*%
X126980000Y-126246000D03*
%TO.P,U2,17*%
%TO.N,Net-(C12-Pad1)*%
X126980000Y-124468000D03*
%TO.P,U2,18*%
%TO.N,Net-(C12-Pad2)*%
X126980000Y-122690000D03*
%TO.P,U2,19*%
%TO.N,mi-r*%
X126980000Y-120912000D03*
%TO.P,U2,20*%
%TO.N,mo-r*%
X126980000Y-119134000D03*
%TO.P,U2,21*%
%TO.N,bi-r*%
X126980000Y-117356000D03*
%TO.P,U2,22*%
%TO.N,bo-r*%
X126980000Y-115578000D03*
%TO.P,U2,23*%
%TO.N,bi-l*%
X126980000Y-113800000D03*
%TO.P,U2,24*%
%TO.N,bo-l*%
X126980000Y-112022000D03*
%TO.P,U2,25*%
%TO.N,mo-l*%
X126980000Y-110244000D03*
%TO.P,U2,26*%
%TO.N,mi-l*%
X126980000Y-108466000D03*
%TO.P,U2,27*%
%TO.N,t-l*%
X126980000Y-106688000D03*
%TO.P,U2,28*%
%TO.N,t-r*%
X126980000Y-104910000D03*
%TO.P,U2,29*%
%TO.N,DGND*%
X126980000Y-103132000D03*
%TO.P,U2,30*%
%TO.N,SCL*%
X126980000Y-101354000D03*
%TD*%
D13*
%TO.P,C2,1*%
%TO.N,Net-(C2-Pad1)*%
X89450000Y-125950000D03*
%TO.P,C2,2*%
%TO.N,L1*%
X94450000Y-125950000D03*
%TD*%
%TO.P,C3,2*%
%TO.N,R2*%
X94400000Y-118200000D03*
%TO.P,C3,1*%
%TO.N,Net-(C3-Pad1)*%
X89400000Y-118200000D03*
%TD*%
%TO.P,C4,1*%
%TO.N,Net-(C4-Pad1)*%
X101800000Y-129400000D03*
%TO.P,C4,2*%
%TO.N,L2*%
X106800000Y-129400000D03*
%TD*%
%TO.P,C5,2*%
%TO.N,R3*%
X106500000Y-113500000D03*
%TO.P,C5,1*%
%TO.N,Net-(C5-Pad1)*%
X101500000Y-113500000D03*
%TD*%
%TO.P,C6,1*%
%TO.N,Net-(C6-Pad1)*%
X89500000Y-133400000D03*
%TO.P,C6,2*%
%TO.N,L3*%
X94500000Y-133400000D03*
%TD*%
%TO.P,C7,2*%
%TO.N,R4*%
X94500000Y-110900000D03*
%TO.P,C7,1*%
%TO.N,Net-(C7-Pad1)*%
X89500000Y-110900000D03*
%TD*%
%TO.P,C8,1*%
%TO.N,Net-(C8-Pad1)*%
X102000000Y-137100000D03*
%TO.P,C8,2*%
%TO.N,L4*%
X107000000Y-137100000D03*
%TD*%
D14*
%TO.P,C10,1*%
%TO.N,+5V*%
X82850000Y-97600000D03*
D13*
%TO.P,C10,2*%
%TO.N,GND*%
X85350000Y-97600000D03*
%TD*%
D14*
%TO.P,C11,1*%
%TO.N,Net-(C11-Pad1)*%
X107375000Y-97600000D03*
D13*
%TO.P,C11,2*%
%TO.N,GND*%
X104875000Y-97600000D03*
%TD*%
%TO.P,C25,2*%
%TO.N,GND*%
X96225000Y-97725000D03*
D14*
%TO.P,C25,1*%
%TO.N,+9V*%
X93725000Y-97725000D03*
%TD*%
D16*
%TO.P,J1,2*%
%TO.N,GND*%
X64350000Y-100650000D03*
%TO.P,J1,1*%
%TO.N,+12V*%
%TA.AperFunction,ComponentPad*%
G36*
G01*
X63600000Y-97300000D02*
X65100000Y-97300000D01*
G75*
G02*
X65350000Y-97550000I0J-250000D01*
G01*
X65350000Y-98750000D01*
G75*
G02*
X65100000Y-99000000I-250000J0D01*
G01*
X63600000Y-99000000D01*
G75*
G02*
X63350000Y-98750000I0J250000D01*
G01*
X63350000Y-97550000D01*
G75*
G02*
X63600000Y-97300000I250000J0D01*
G01*
G37*
%TD.AperFunction*%
%TD*%
D11*
%TO.P,J3,3*%
%TO.N,Net-(C4-Pad1)*%
X77100000Y-125100000D03*
%TO.P,J3,2*%
%TO.N,GND*%
X77100000Y-122600000D03*
%TO.P,J3,1*%
%TO.N,Net-(C3-Pad1)*%
%TA.AperFunction,ComponentPad*%
G36*
G01*
X76375000Y-119250000D02*
X77825000Y-119250000D01*
G75*
G02*
X78075000Y-119500000I0J-250000D01*
G01*
X78075000Y-120700000D01*
G75*
G02*
X77825000Y-120950000I-250000J0D01*
G01*
X76375000Y-120950000D01*
G75*
G02*
X76125000Y-120700000I0J250000D01*
G01*
X76125000Y-119500000D01*
G75*
G02*
X76375000Y-119250000I250000J0D01*
G01*
G37*
%TD.AperFunction*%
%TD*%
%TO.P,J4,1*%
%TO.N,Net-(C5-Pad1)*%
%TA.AperFunction,ComponentPad*%
G36*
G01*
X69875000Y-119150000D02*
X71325000Y-119150000D01*
G75*
G02*
X71575000Y-119400000I0J-250000D01*
G01*
X71575000Y-120600000D01*
G75*
G02*
X71325000Y-120850000I-250000J0D01*
G01*
X69875000Y-120850000D01*
G75*
G02*
X69625000Y-120600000I0J250000D01*
G01*
X69625000Y-119400000D01*
G75*
G02*
X69875000Y-119150000I250000J0D01*
G01*
G37*
%TD.AperFunction*%
%TO.P,J4,2*%
%TO.N,GND*%
X70600000Y-122500000D03*
%TO.P,J4,3*%
%TO.N,Net-(C6-Pad1)*%
X70600000Y-125000000D03*
%TD*%
%TO.P,J5,1*%
%TO.N,Net-(C7-Pad1)*%
%TA.AperFunction,ComponentPad*%
G36*
G01*
X63625000Y-119250000D02*
X65075000Y-119250000D01*
G75*
G02*
X65325000Y-119500000I0J-250000D01*
G01*
X65325000Y-120700000D01*
G75*
G02*
X65075000Y-120950000I-250000J0D01*
G01*
X63625000Y-120950000D01*
G75*
G02*
X63375000Y-120700000I0J250000D01*
G01*
X63375000Y-119500000D01*
G75*
G02*
X63625000Y-119250000I250000J0D01*
G01*
G37*
%TD.AperFunction*%
%TO.P,J5,2*%
%TO.N,GND*%
X64350000Y-122600000D03*
%TO.P,J5,3*%
%TO.N,Net-(C8-Pad1)*%
X64350000Y-125100000D03*
%TD*%
%TO.P,J6,3*%
%TO.N,Net-(C2-Pad1)*%
X83900000Y-125300000D03*
%TO.P,J6,2*%
%TO.N,GND*%
X83900000Y-122800000D03*
%TO.P,J6,1*%
%TO.N,Net-(C1-Pad1)*%
%TA.AperFunction,ComponentPad*%
G36*
G01*
X83175000Y-119450000D02*
X84625000Y-119450000D01*
G75*
G02*
X84875000Y-119700000I0J-250000D01*
G01*
X84875000Y-120900000D01*
G75*
G02*
X84625000Y-121150000I-250000J0D01*
G01*
X83175000Y-121150000D01*
G75*
G02*
X82925000Y-120900000I0J250000D01*
G01*
X82925000Y-119700000D01*
G75*
G02*
X83175000Y-119450000I250000J0D01*
G01*
G37*
%TD.AperFunction*%
%TD*%
%TO.P,J7,1*%
%TO.N,+9V*%
%TA.AperFunction,ComponentPad*%
G36*
G01*
X109375000Y-86300000D02*
X109375000Y-84800000D01*
G75*
G02*
X109625000Y-84550000I250000J0D01*
G01*
X110825000Y-84550000D01*
G75*
G02*
X111075000Y-84800000I0J-250000D01*
G01*
X111075000Y-86300000D01*
G75*
G02*
X110825000Y-86550000I-250000J0D01*
G01*
X109625000Y-86550000D01*
G75*
G02*
X109375000Y-86300000I0J250000D01*
G01*
G37*
%TD.AperFunction*%
D17*
%TO.P,J7,2*%
%TO.N,GND*%
X112725000Y-85550000D03*
%TD*%
%TO.P,J8,1*%
%TO.N,+5V*%
%TA.AperFunction,ComponentPad*%
G36*
G01*
X99975000Y-86300000D02*
X99975000Y-84800000D01*
G75*
G02*
X100225000Y-84550000I250000J0D01*
G01*
X101425000Y-84550000D01*
G75*
G02*
X101675000Y-84800000I0J-250000D01*
G01*
X101675000Y-86300000D01*
G75*
G02*
X101425000Y-86550000I-250000J0D01*
G01*
X100225000Y-86550000D01*
G75*
G02*
X99975000Y-86300000I0J250000D01*
G01*
G37*
%TD.AperFunction*%
%TO.P,J8,2*%
%TO.N,GND*%
X103325000Y-85550000D03*
%TD*%
D13*
%TO.P,R1,1*%
%TO.N,Net-(C14-Pad2)*%
X156775000Y-132025000D03*
D18*
%TO.P,R1,2*%
%TO.N,GND*%
X156775000Y-119325000D03*
%TD*%
%TO.P,R2,2*%
%TO.N,GND*%
X160850000Y-97500000D03*
D13*
%TO.P,R2,1*%
%TO.N,Net-(C16-Pad2)*%
X160850000Y-110200000D03*
%TD*%
D18*
%TO.P,R3,2*%
%TO.N,Net-(J9-Pad1)*%
X139700000Y-96475000D03*
D13*
%TO.P,R3,1*%
%TO.N,SDA*%
X127000000Y-96475000D03*
%TD*%
%TO.P,R4,1*%
%TO.N,SCL*%
X127000000Y-91500000D03*
D18*
%TO.P,R4,2*%
%TO.N,Net-(J9-Pad1)*%
X139700000Y-91500000D03*
%TD*%
D13*
%TO.P,R5,1*%
%TO.N,Net-(C19-Pad2)*%
X156800000Y-116900000D03*
D18*
%TO.P,R5,2*%
%TO.N,GND*%
X156800000Y-104200000D03*
%TD*%
%TO.P,R6,2*%
%TO.N,GND*%
X160850000Y-112600000D03*
D13*
%TO.P,R6,1*%
%TO.N,Net-(C21-Pad2)*%
X160850000Y-125300000D03*
%TD*%
D19*
%TO.P,U1,3*%
%TO.N,+5V*%
X77950000Y-90125000D03*
%TO.P,U1,2*%
%TO.N,GND*%
X75410000Y-90125000D03*
D20*
%TO.P,U1,1*%
%TO.N,+12V*%
X72870000Y-90125000D03*
%TD*%
%TO.P,U4,1*%
%TO.N,+12V*%
X87595000Y-90025000D03*
D19*
%TO.P,U4,2*%
%TO.N,GND*%
X90135000Y-90025000D03*
%TO.P,U4,3*%
%TO.N,+9V*%
X92675000Y-90025000D03*
%TD*%
D13*
%TO.P,C1,1*%
%TO.N,Net-(C1-Pad1)*%
X101600000Y-121400000D03*
%TO.P,C1,2*%
%TO.N,R1*%
X106600000Y-121400000D03*
%TD*%
D14*
%TO.P,C9,1*%
%TO.N,+12V*%
X72675000Y-97600000D03*
D13*
%TO.P,C9,2*%
%TO.N,GND*%
X75175000Y-97600000D03*
%TD*%
M02*
